<svg xmlns="http://www.w3.org/2000/svg" xmlns:xlink="http://www.w3.org/1999/xlink" version="1.1" width="256" height="256" viewBox="0 0 256 256" xml:space="preserve">
  <defs>
  </defs>
  <g style="fill: white; stroke: none; stroke-width: 0; stroke-dasharray: none; stroke-linecap: butt; stroke-linejoin: miter; stroke-miterlimit: 10; fill-rule: nonzero; opacity: 1;" transform="translate(1.4065934065934016 1.4065934065934016) scale(2.81 2.81)">
    <path d="M 90 45 C 90 20.187 69.813 0 45 0 C 20.187 0 0 20.187 0 45 c 0 13.712 6.172 26.002 15.875 34.263 c 0.036 0.035 0.058 0.079 0.097 0.112 c 0.686 0.58 1.394 1.13 2.111 1.665 c 0.01 0.008 0.02 0.015 0.03 0.022 c 0.536 0.4 1.08 0.787 1.632 1.161 c 0.089 0.06 0.178 0.119 0.267 0.179 c 0.467 0.312 0.94 0.616 1.417 0.91 c 0.166 0.102 0.331 0.204 0.498 0.304 c 0.396 0.237 0.796 0.466 1.199 0.69 c 0.242 0.135 0.484 0.271 0.729 0.402 c 0.315 0.168 0.634 0.329 0.953 0.489 c 0.329 0.166 0.656 0.332 0.99 0.49 c 0.199 0.094 0.401 0.181 0.601 0.272 c 2.208 1.007 4.508 1.843 6.889 2.485 c 0 0 0 0 0 0 c 0.547 0.148 1.1 0.281 1.655 0.408 c 0.127 0.029 0.254 0.06 0.381 0.088 c 0.49 0.108 0.983 0.205 1.478 0.297 c 0.209 0.039 0.417 0.076 0.627 0.112 c 0.44 0.075 0.882 0.144 1.326 0.206 c 0.288 0.041 0.577 0.075 0.866 0.11 c 0.385 0.046 0.77 0.092 1.157 0.128 c 0.392 0.037 0.786 0.063 1.18 0.09 c 0.301 0.02 0.6 0.046 0.902 0.06 C 43.572 89.98 44.285 90 45 90 s 1.428 -0.02 2.139 -0.054 c 0.302 -0.014 0.601 -0.04 0.902 -0.06 c 0.394 -0.027 0.788 -0.053 1.18 -0.09 c 0.388 -0.036 0.772 -0.082 1.157 -0.128 c 0.289 -0.035 0.578 -0.07 0.867 -0.11 c 0.444 -0.062 0.885 -0.131 1.325 -0.206 c 0.21 -0.036 0.419 -0.074 0.627 -0.112 c 0.495 -0.092 0.988 -0.189 1.477 -0.297 c 0.128 -0.028 0.255 -0.059 0.383 -0.089 c 0.555 -0.127 1.107 -0.26 1.654 -0.408 c 0.001 0 0.002 -0.001 0.003 -0.001 c 2.381 -0.643 4.682 -1.479 6.89 -2.486 c 0.199 -0.09 0.399 -0.177 0.597 -0.27 c 0.335 -0.159 0.664 -0.326 0.994 -0.492 c 0.317 -0.159 0.634 -0.319 0.947 -0.486 c 0.247 -0.132 0.491 -0.269 0.736 -0.405 c 0.401 -0.223 0.799 -0.451 1.193 -0.687 c 0.169 -0.101 0.336 -0.203 0.503 -0.307 c 0.476 -0.293 0.946 -0.595 1.412 -0.906 c 0.091 -0.061 0.182 -0.121 0.273 -0.183 c 0.549 -0.373 1.09 -0.758 1.624 -1.156 c 0.013 -0.01 0.026 -0.019 0.038 -0.028 c 0.716 -0.535 1.422 -1.084 2.108 -1.663 c 0.039 -0.033 0.061 -0.077 0.097 -0.112 C 83.828 71.003 90 58.712 90 45 z M 4 45 C 4 22.393 22.393 4 45 4 s 41 18.393 41 41 c 0 11.569 -4.824 22.027 -12.558 29.488 c -3.802 -7.754 -10.635 -13.575 -18.698 -16.212 c 6.58 -3.502 11.074 -10.425 11.074 -18.383 c 0 -11.479 -9.339 -20.818 -20.817 -20.818 c -11.479 0 -20.818 9.339 -20.818 20.818 c 0 7.959 4.494 14.882 11.074 18.384 c -8.064 2.637 -14.897 8.459 -18.698 16.213 C 8.825 67.027 4 56.569 4 45 z" style="stroke: none; stroke-width: 1; stroke-dasharray: none; stroke-linecap: butt; stroke-linejoin: miter; stroke-miterlimit: 10; fill: white; fill-rule: nonzero; opacity: 1;" transform=" matrix(1 0 0 1 0 0) " stroke-linecap="round" />
  </g>
</svg>
